# xmcd
#
# Track frame offsets:
#	150
#	16452
#	34645
#	51405
#	71677
#	90842
#	116457
#	135785
#	157055
#	171475
#	189805
#	207412
#	222145
#	244212
#	262750
#
# Disc length: 3746 seconds
#
# Revision: 0
# Processed by: cddbd v1.5.1PL2 Copyright (c) Steve Scherf et al.
# Submitted via: dBpowerAMP V4.0
#
DISCID=c70ea00f
DTITLE=Wyonna - What the world needs now is love
DYEAR=2003
DGENRE=Country
TTITLE0=What the world needs
TTITLE1=Heaven help me
TTITLE2=It all comes down to love
TTITLE3=Flies on the butter
TTITLE4=I will be
TTITLE5=I want to know what love is
TTITLE6=It's only love
TTITLE7=Sometimes I feel like Elvis
TTITLE8=Burnin' Love
TTITLE9=Who am I supposed to love
TTITLE10=Your day will come
TTITLE11=(No one's gonna) Break me Down
TTITLE12=You are
TTITLE13=Rescue Me
TTITLE14=Bonus track - I wanna know what love is
EXTD=
EXTT0=
EXTT1=
EXTT2=
EXTT3=
EXTT4=
EXTT5=
EXTT6=
EXTT7=
EXTT8=
EXTT9=
EXTT10=
EXTT11=
EXTT12=
EXTT13=
EXTT14=
PLAYORDER=
